# xmcd CD database file
#
# Track frame offsets:
#	150
#	13275
#	25052
#	38177
#	51306
#	65842
#	77231
#	89441
#	102821
#	113822
#	125972
#	138333
#	151493
#	163339
#
# Disc length: 2339 seconds
#
# Revision: 0
# Processed by: cddbd v1.5.2PL0 Copyright (c) Steve Scherf et al.
# Submitted via: CDex 1.51
#
DISCID=c809210e
DTITLE=Ruth Brown - Oh What A Dream
DYEAR=1900
DGENRE=Jazz
TTITLE0=Teardrop From My Eyes
TTITLE1=I'll Wait For You
TTITLE2=Shine On
TTITLE3=Daddy Daddy
TTITLE4=5-10-15 Hours
TTITLE5=Wild Wild Young Men
TTITLE6=I Would If I Could
TTITLE7=He Treats Your Daughter Mean 
TTITLE8=Somedy Touched Me
TTITLE9=Hello Little Boy
TTITLE10=As Long As I'm Moving
TTITLE11=Oh What A Dream
TTITLE12=So Long
TTITLE13=Mambo Baby
EXTD=
EXTT0=
EXTT1=
EXTT2=
EXTT3=
EXTT4=
EXTT5=
EXTT6=
EXTT7=
EXTT8=
EXTT9=
EXTT10=
EXTT11=
EXTT12=
EXTT13=
PLAYORDER=
